<svg xmlns="http://www.w3.org/2000/svg" width="379" height="54" viewBox="0 0 379 54">
    <g fill="none" fill-rule="nonzero">
        <path fill="#353535" d="M15.492 40.874H.112v-2.238h.156c.607 0 1.175-.043 1.705-.13.529-.087.989-.265 1.379-.533.39-.27.702-.655.936-1.158.234-.503.352-1.17.352-2.004V18.182c0-.78-.117-1.41-.352-1.886-.234-.478-.55-.846-.95-1.106-.399-.26-.862-.434-1.391-.52-.53-.087-1.09-.131-1.68-.131H.113v-2.238h8.197l1.015 5.283h.26c.347-.798.703-1.549 1.068-2.251a7.43 7.43 0 0 1 1.34-1.848c.529-.529 1.183-.945 1.964-1.249.781-.304 1.761-.455 2.94-.455 1.944 0 3.388.338 4.334 1.015.945.676 1.418 1.63 1.418 2.862a4.2 4.2 0 0 1-.273 1.536 2.99 2.99 0 0 1-.872 1.21c-.398.339-.91.599-1.535.781-.625.182-1.388.273-2.29.273 0-1.474-.208-2.537-.625-3.188-.416-.65-1.145-.976-2.186-.976-.66 0-1.25.187-1.77.56-.52.373-.975.868-1.365 1.484a9.778 9.778 0 0 0-.99 2.12 19.292 19.292 0 0 0-.65 2.46 23.08 23.08 0 0 0-.352 2.511c-.07.833-.104 1.588-.104 2.264v8.38c0 .78.118 1.41.352 1.886.234.478.55.837.95 1.08.398.243.863.404 1.392.482.529.078 1.088.117 1.678.117h1.484v2.236zM51.534 35.071c0 .781.118 1.41.352 1.887.234.477.55.837.95 1.08.398.243.862.404 1.391.482.53.078 1.09.117 1.68.117h.155v2.238h-8.457l-.703-4.32h-.26c-.538 1.006-1.132 1.821-1.783 2.446a8.166 8.166 0 0 1-2.068 1.47 8.192 8.192 0 0 1-2.29.729c-.799.13-1.631.195-2.498.195-1.406 0-2.655-.2-3.748-.599a6.627 6.627 0 0 1-2.758-1.873c-.747-.85-1.315-1.935-1.705-3.253-.39-1.319-.586-2.889-.586-4.71V18.18c0-.78-.117-1.41-.351-1.887-.234-.477-.551-.845-.95-1.105-.4-.26-.863-.434-1.392-.52-.53-.087-1.089-.131-1.679-.131h-.156V12.3h9.55v18.398c0 1.163.092 2.195.274 3.097.182.902.486 1.666.91 2.29a3.999 3.999 0 0 0 1.718 1.419c.72.32 1.618.481 2.693.481 1.18 0 2.19-.208 3.032-.624a5.599 5.599 0 0 0 2.082-1.757c.547-.754.95-1.66 1.21-2.719.261-1.058.391-2.23.391-3.513V18.39c0-.833-.117-1.505-.351-2.017-.235-.512-.547-.901-.937-1.17a3.35 3.35 0 0 0-1.38-.534c-.528-.086-1.096-.13-1.704-.13h-.156v-2.238h9.525v22.77zM71.572 14.435c-1.023 0-1.852.143-2.485.429-.633.286-1.127.69-1.483 1.21-.356.52-.594 1.137-.716 1.848a13.78 13.78 0 0 0-.182 2.316c-1.475 0-2.598-.251-3.37-.754-.771-.504-1.158-1.371-1.158-2.603 0-.92.252-1.7.755-2.342.503-.642 1.193-1.167 2.068-1.574.876-.408 1.896-.708 3.058-.898a23.014 23.014 0 0 1 3.722-.286c1.63 0 3.053.16 4.268.481 1.214.321 2.23.846 3.044 1.574.816.729 1.427 1.68 1.835 2.85.407 1.17.611 2.607.611 4.307v13.818c0 .746.061 1.362.183 1.848.121.486.312.876.572 1.17.26.296.603.504 1.029.625.425.122.932.182 1.522.182H85v2.238h-7.208l-.833-4.58h-.443a47.408 47.408 0 0 1-1.613 2.056 9.372 9.372 0 0 1-1.717 1.613 7.464 7.464 0 0 1-2.121 1.054c-.79.251-1.74.378-2.85.378-1.18 0-2.277-.17-3.292-.508a6.934 6.934 0 0 1-2.628-1.561c-.738-.703-1.314-1.587-1.73-2.654-.417-1.067-.625-2.33-.625-3.787 0-2.827 1.006-4.926 3.018-6.297 2.013-1.371 5.058-2.117 9.135-2.238l4.423-.156v-3.201c0-.955-.051-1.835-.156-2.642-.104-.807-.33-1.5-.676-2.082-.347-.581-.846-1.032-1.497-1.353-.65-.32-1.523-.481-2.616-.481zm-6.454 18.71c0 1.666.352 2.91 1.054 3.735.703.824 1.792 1.236 3.266 1.236 1.076 0 2.052-.173 2.928-.52a6.24 6.24 0 0 0 2.238-1.483c.615-.642 1.088-1.423 1.418-2.343.33-.92.494-1.943.494-3.07v-4.32l-3.409.156c-1.51.07-2.771.256-3.786.56-1.015.303-1.834.728-2.46 1.275a4.571 4.571 0 0 0-1.34 2.016c-.268.798-.403 1.718-.403 2.759zM103.113 38.636v2.238h-14.34v-2.238h.443c.607 0 1.176-.043 1.705-.13.529-.087.99-.265 1.379-.533.39-.27.703-.655.937-1.158.234-.503.351-1.17.351-2.004V18.182c0-.78-.117-1.41-.351-1.886-.234-.478-.551-.846-.95-1.106a3.574 3.574 0 0 0-1.392-.52c-.53-.087-1.089-.131-1.679-.131h-.156v-2.238h8.614l.703 4.32h.26c.555-.989 1.14-1.8 1.756-2.433.616-.633 1.267-1.128 1.952-1.483a7.367 7.367 0 0 1 2.186-.729c.772-.13 1.583-.195 2.433-.195 1.405 0 2.66.204 3.76.611a7.093 7.093 0 0 1 2.811 1.874c.772.842 1.362 1.922 1.77 3.24.407 1.319.611 2.889.611 4.71v12.596c0 .833.1 1.5.3 2.004.199.503.48.889.845 1.158.365.269.798.446 1.301.533.503.087 1.05.13 1.64.13h.182v2.238h-9.29V22.477c0-1.163-.104-2.195-.312-3.097-.209-.902-.542-1.665-1.002-2.29a4.319 4.319 0 0 0-1.809-1.419c-.746-.32-1.657-.48-2.733-.48-1.214 0-2.233.233-3.057.702a5.573 5.573 0 0 0-1.991 1.9c-.503.798-.863 1.717-1.08 2.758a16.034 16.034 0 0 0-.325 3.28v11.241c0 .781.117 1.41.351 1.887.234.478.551.837.95 1.08.399.243.863.404 1.392.482.53.078 1.089.117 1.679.117h.156v-.002zM149.695 13.42c0 .381-.057.741-.17 1.08a2.483 2.483 0 0 1-.507.884 2.366 2.366 0 0 1-.872.599c-.355.147-.776.221-1.262.221 0-.208-.026-.416-.078-.624a1.722 1.722 0 0 0-.273-.586 1.421 1.421 0 0 0-.533-.443c-.225-.112-.52-.169-.885-.169a4.44 4.44 0 0 0-1.223.156c-.365.104-.72.27-1.067.495.607.746 1.106 1.626 1.496 2.641.39 1.015.586 2.286.586 3.812 0 1.319-.2 2.538-.599 3.657a7.96 7.96 0 0 1-1.782 2.901c-.79.815-1.787 1.453-2.993 1.913-1.206.46-2.615.69-4.229.69-.208 0-.442-.005-.702-.013-.26-.01-.52-.018-.781-.026a9.063 9.063 0 0 1-.729-.052 71.427 71.427 0 0 1-.546-.065 9.219 9.219 0 0 0-.99.573 4.328 4.328 0 0 0-.82.702c-.234.26-.42.555-.56.885-.138.33-.207.694-.207 1.093 0 .433.082.78.247 1.04.164.261.394.465.69.612.294.148.646.243 1.053.287.408.043.846.064 1.315.064h6.037c1.596 0 2.95.2 4.06.6 1.11.398 2.017.949 2.72 1.652a6.274 6.274 0 0 1 1.535 2.524c.32.98.48 2.043.48 3.188 0 1.527-.281 2.907-.845 4.138-.564 1.232-1.427 2.277-2.59 3.136-1.162.859-2.632 1.522-4.41 1.99-1.779.469-3.873.703-6.285.703-3.712 0-6.488-.685-8.327-2.056-1.84-1.37-2.759-3.279-2.759-5.725 0-1.04.182-1.951.546-2.732a6.186 6.186 0 0 1 1.47-2.004 7.763 7.763 0 0 1 2.122-1.353c.798-.347 1.64-.599 2.524-.755a5.187 5.187 0 0 1-1.067-.624 4.788 4.788 0 0 1-1.613-2.186 4.469 4.469 0 0 1-.26-1.561c0-1.059.278-1.974.833-2.746.555-.772 1.44-1.523 2.654-2.251a6.837 6.837 0 0 1-2.043-1.288 7.865 7.865 0 0 1-1.51-1.874 9.155 9.155 0 0 1-.936-2.303 10.198 10.198 0 0 1-.325-2.577c0-1.544.208-2.923.625-4.138.416-1.214 1.04-2.246 1.874-3.096.833-.85 1.874-1.5 3.122-1.952 1.25-.451 2.715-.677 4.398-.677a12.55 12.55 0 0 1 3.63.534c.53.165 1.007.352 1.432.56a4.79 4.79 0 0 1 1.028.65c.26-.277.564-.585.911-.923.347-.339.737-.65 1.17-.937a6.998 6.998 0 0 1 1.42-.716 4.7 4.7 0 0 1 1.652-.286c.538 0 1.002.074 1.392.222.39.147.716.346.976.598s.455.547.586.885c.13.338.194.689.194 1.053zM127.21 45.559c0 .78.104 1.51.312 2.186a3.93 3.93 0 0 0 1.093 1.743c.52.486 1.223.868 2.108 1.145.884.278 2.003.417 3.356.417 1.909 0 3.483-.16 4.724-.482 1.24-.32 2.225-.768 2.954-1.34.728-.572 1.24-1.253 1.535-2.042.295-.79.443-1.653.443-2.59 0-.815-.118-1.487-.352-2.016a2.833 2.833 0 0 0-1.041-1.25c-.46-.303-1.028-.516-1.705-.637-.676-.122-1.457-.183-2.342-.183h-5.23c-.747 0-1.471.065-2.174.196a4.98 4.98 0 0 0-1.874.741c-.546.365-.984.876-1.314 1.535-.328.66-.493 1.519-.493 2.577zm3.096-24.072c0 2.272.378 3.938 1.132 4.996.755 1.059 1.99 1.588 3.708 1.588.868 0 1.6-.13 2.2-.39a3.47 3.47 0 0 0 1.47-1.198c.381-.537.655-1.227.82-2.068.164-.842.247-1.844.247-3.006 0-2.394-.365-4.164-1.093-5.309-.729-1.145-1.96-1.717-3.695-1.717-1.718 0-2.946.585-3.683 1.756-.737 1.171-1.106 2.954-1.106 5.348z"/>
        <path fill="#F45922" d="M151.725 38.636c.607 0 1.175-.043 1.705-.13.529-.087.989-.265 1.379-.533.39-.27.702-.655.936-1.158.235-.503.352-1.17.352-2.004V6.238c0-.781-.117-1.41-.352-1.887-.234-.478-.55-.846-.95-1.106a3.427 3.427 0 0 0-1.391-.508 11.53 11.53 0 0 0-1.68-.117h-.676V.382h10.071v34.43c0 .832.113 1.5.339 2.003.225.503.538.889.937 1.158.398.269.863.446 1.392.533.529.087 1.097.13 1.704.13h.677v2.238h-15.12v-2.238h.677zM182.172 41.395c-1.926 0-3.656-.325-5.192-.975a10.278 10.278 0 0 1-3.89-2.85c-1.058-1.25-1.87-2.78-2.433-4.593-.564-1.813-.846-3.873-.846-6.18 0-4.98 1.023-8.727 3.07-11.243 2.048-2.516 4.962-3.773 8.744-3.773 1.718 0 3.262.269 4.632.807a9.032 9.032 0 0 1 3.488 2.407c.954 1.067 1.687 2.394 2.199 3.981.511 1.588.767 3.43.767 5.53v2.446h-17.747c.034 1.943.23 3.613.585 5.01.356 1.396.868 2.546 1.536 3.448.667.902 1.487 1.566 2.459 1.99.971.425 2.09.638 3.357.638.92 0 1.773-.104 2.563-.312a9.699 9.699 0 0 0 2.147-.833 8.856 8.856 0 0 0 1.705-1.183 6.88 6.88 0 0 0 1.21-1.392c.243.103.473.32.69.65.217.33.325.72.325 1.171 0 .538-.191 1.115-.573 1.73-.382.616-.963 1.184-1.744 1.705-.78.52-1.756.955-2.927 1.301-1.171.347-2.546.52-4.125.52zm-.65-26.752c-1.978 0-3.5.802-4.568 2.407-1.067 1.605-1.695 3.951-1.887 7.04h12.257c0-1.406-.103-2.69-.312-3.852-.208-1.163-.538-2.16-.989-2.993-.451-.833-1.045-1.475-1.782-1.926-.737-.45-1.644-.676-2.72-.676zM206.582 41.395c-1.336 0-2.546-.117-3.63-.351-1.084-.235-2.009-.59-2.772-1.067-.763-.478-1.353-1.067-1.77-1.77-.416-.702-.624-1.522-.624-2.459 0-.711.117-1.305.351-1.783.235-.477.52-.854.86-1.131a3.053 3.053 0 0 1 1.092-.586c.39-.113.742-.17 1.054-.17 0 .937.096 1.814.286 2.629.191.815.512 1.531.963 2.147a4.687 4.687 0 0 0 1.783 1.457c.737.356 1.643.534 2.719.534.954 0 1.795-.118 2.524-.352.729-.234 1.34-.564 1.835-.989a4.217 4.217 0 0 0 1.132-1.535c.26-.599.39-1.254.39-1.965 0-.66-.1-1.228-.299-1.705-.2-.477-.546-.923-1.041-1.34-.495-.416-1.167-.842-2.017-1.275a56.906 56.906 0 0 0-3.2-1.484 44.613 44.613 0 0 1-3.579-1.756c-1.014-.564-1.852-1.176-2.511-1.835a6.524 6.524 0 0 1-1.484-2.25c-.33-.842-.494-1.844-.494-3.006 0-1.215.238-2.29.715-3.227a6.49 6.49 0 0 1 2.043-2.355c.885-.634 1.943-1.115 3.175-1.445 1.232-.33 2.603-.494 4.112-.494 1.266 0 2.385.13 3.357.39.971.26 1.787.612 2.446 1.054.66.443 1.154.963 1.483 1.562.33.598.495 1.227.495 1.886 0 .972-.334 1.748-1.003 2.33-.667.58-1.617.871-2.85.871 0-1.787-.368-3.175-1.105-4.163-.737-.99-1.895-1.484-3.474-1.484-.902 0-1.674.104-2.316.312-.642.209-1.167.504-1.575.885a3.462 3.462 0 0 0-.898 1.353 4.95 4.95 0 0 0-.286 1.718c0 .676.122 1.262.365 1.756.243.495.629.95 1.158 1.367.529.416 1.214.82 2.055 1.21.842.39 1.852.828 3.032 1.314 1.405.59 2.611 1.17 3.618 1.744 1.006.572 1.834 1.196 2.485 1.874a6.529 6.529 0 0 1 1.444 2.29c.313.85.469 1.83.469 2.94 0 1.388-.252 2.603-.755 3.644a7.178 7.178 0 0 1-2.134 2.615c-.92.703-2.025 1.228-3.318 1.574-1.292.347-2.727.521-4.306.521zM247.257 26.536c0 5.013-1.063 8.744-3.188 11.19-2.125 2.446-5.235 3.67-9.33 3.67-1.925 0-3.651-.305-5.178-.912a9.92 9.92 0 0 1-3.89-2.758c-1.068-1.232-1.883-2.78-2.447-4.645-.564-1.865-.846-4.047-.846-6.545 0-4.98 1.054-8.683 3.162-11.112 2.108-2.43 5.227-3.644 9.356-3.644 1.926 0 3.652.3 5.179.898a9.864 9.864 0 0 1 3.89 2.733c1.067 1.223 1.882 2.758 2.446 4.606.564 1.847.846 4.02.846 6.519zm-19.726 0c0 1.978.13 3.721.39 5.23.26 1.51.681 2.772 1.263 3.787.58 1.015 1.336 1.782 2.264 2.303.928.52 2.06.781 3.396.781 1.336 0 2.464-.26 3.383-.78.92-.521 1.666-1.29 2.238-2.304.573-1.015.985-2.277 1.236-3.786.252-1.51.378-3.253.378-5.231 0-1.978-.13-3.713-.39-5.205s-.677-2.737-1.25-3.734c-.573-.998-1.323-1.748-2.25-2.251-.93-.503-2.061-.755-3.397-.755-1.336 0-2.464.252-3.383.755-.92.503-1.666 1.253-2.238 2.25-.573.998-.99 2.243-1.25 3.735s-.39 3.227-.39 5.205zM266.02 38.636v2.238h-14.339v-2.238h.442c.607 0 1.176-.043 1.705-.13.53-.087.99-.265 1.38-.533.39-.27.702-.655.936-1.158.234-.503.351-1.17.351-2.004V18.182c0-.78-.117-1.41-.351-1.886-.234-.478-.551-.846-.95-1.106a3.574 3.574 0 0 0-1.392-.52c-.529-.087-1.089-.131-1.679-.131h-.156v-2.238h8.614l.703 4.32h.26c.555-.989 1.14-1.8 1.756-2.433.616-.633 1.267-1.128 1.952-1.483a7.367 7.367 0 0 1 2.186-.729c.772-.13 1.583-.195 2.433-.195 1.405 0 2.66.204 3.76.611a7.093 7.093 0 0 1 2.811 1.874c.772.842 1.362 1.922 1.77 3.24.407 1.319.611 2.889.611 4.71v12.596c0 .833.1 1.5.3 2.004.199.503.48.889.845 1.158.365.269.798.446 1.301.533.504.087 1.05.13 1.64.13h.182v2.238h-9.29V22.477c0-1.163-.104-2.195-.312-3.097-.208-.902-.542-1.665-1.002-2.29a4.322 4.322 0 0 0-1.809-1.419c-.746-.32-1.657-.48-2.733-.48-1.214 0-2.233.233-3.057.702a5.573 5.573 0 0 0-1.991 1.9c-.503.798-.863 1.717-1.08 2.758a16.034 16.034 0 0 0-.326 3.28v11.241c0 .781.118 1.41.352 1.887.234.478.55.837.95 1.08.398.243.863.404 1.392.482.529.078 1.088.117 1.678.117h.157v-.002zM285.954 38.636c.607 0 1.176-.043 1.705-.13.53-.087.99-.265 1.38-.533.39-.27.702-.655.936-1.158.234-.503.351-1.17.351-2.004V6.238c0-.781-.117-1.41-.351-1.887-.234-.478-.551-.846-.95-1.106a3.427 3.427 0 0 0-1.392-.508 11.53 11.53 0 0 0-1.679-.117h-.676V.382h10.07v34.43c0 .832.114 1.5.34 2.003.225.503.537.889.936 1.158.399.269.863.446 1.392.533.53.087 1.097.13 1.705.13h.676v2.238h-15.12v-2.238h.677zM303.026 38.636c.59 0 1.15-.038 1.678-.117.53-.078.994-.238 1.392-.481.4-.243.716-.603.95-1.08.234-.477.352-1.106.352-1.887V18.18c0-.78-.118-1.409-.352-1.886-.234-.477-.55-.846-.95-1.106a3.574 3.574 0 0 0-1.392-.52c-.529-.087-1.088-.13-1.678-.13h-.157V12.3h9.525v22.51c0 .833.118 1.5.352 2.004.234.503.546.888.936 1.157.39.27.855.447 1.392.534.538.086 1.102.13 1.692.13h.703v2.238h-15.146v-2.238h.703zm3.617-34.975c0-.625.078-1.145.234-1.561.156-.417.373-.755.65-1.015.278-.261.6-.443.963-.547a4.355 4.355 0 0 1 1.197-.156c.416 0 .807.052 1.17.156.365.104.681.286.95.547.27.26.486.598.651 1.015.165.416.247.936.247 1.561 0 .625-.082 1.145-.247 1.561a2.845 2.845 0 0 1-.65 1.016c-.27.26-.586.446-.95.56-.365.112-.755.169-1.171.169-.434 0-.833-.057-1.197-.17a2.438 2.438 0 0 1-.963-.56 2.637 2.637 0 0 1-.65-1.015c-.156-.416-.234-.937-.234-1.56zM333.968 38.636v2.238h-14.34v-2.238h.443c.607 0 1.176-.043 1.705-.13.529-.087.989-.265 1.379-.533.39-.27.702-.655.936-1.158.235-.503.352-1.17.352-2.004V18.182c0-.78-.117-1.41-.352-1.886-.234-.478-.55-.846-.95-1.106a3.574 3.574 0 0 0-1.391-.52c-.53-.087-1.09-.131-1.679-.131h-.156v-2.238h8.614l.702 4.32h.26c.555-.989 1.141-1.8 1.757-2.433.616-.633 1.266-1.128 1.952-1.483a7.367 7.367 0 0 1 2.186-.729c.772-.13 1.583-.195 2.433-.195 1.405 0 2.659.204 3.76.611a7.093 7.093 0 0 1 2.81 1.874c.773.842 1.363 1.922 1.77 3.24.408 1.319.612 2.889.612 4.71v12.596c0 .833.1 1.5.299 2.004.2.503.481.889.846 1.158.364.269.798.446 1.301.533.503.087 1.05.13 1.64.13h.182v2.238h-9.29V22.477c0-1.163-.105-2.195-.313-3.097-.208-.902-.542-1.665-1.002-2.29a4.322 4.322 0 0 0-1.808-1.419c-.746-.32-1.657-.48-2.733-.48-1.214 0-2.234.233-3.058.702a5.573 5.573 0 0 0-1.99 1.9c-.504.798-.863 1.717-1.08 2.758a16.034 16.034 0 0 0-.326 3.28v11.241c0 .781.117 1.41.351 1.887.235.478.551.837.95 1.08.399.243.863.404 1.392.482.53.078 1.089.117 1.679.117h.157v-.002zM367.824 41.395c-1.926 0-3.656-.325-5.192-.975a10.278 10.278 0 0 1-3.89-2.85c-1.058-1.25-1.87-2.78-2.433-4.593-.564-1.813-.846-3.873-.846-6.18 0-4.98 1.023-8.727 3.07-11.243 2.048-2.516 4.962-3.773 8.744-3.773 1.718 0 3.262.269 4.632.807a9.032 9.032 0 0 1 3.488 2.407c.954 1.067 1.687 2.394 2.199 3.981.511 1.588.767 3.43.767 5.53v2.446h-17.747c.034 1.943.23 3.613.585 5.01.356 1.396.868 2.546 1.536 3.448.667.902 1.487 1.566 2.459 1.99.971.426 2.09.638 3.357.638.92 0 1.774-.104 2.563-.312a9.709 9.709 0 0 0 2.147-.833 8.856 8.856 0 0 0 1.705-1.183 6.88 6.88 0 0 0 1.21-1.392c.243.103.473.32.69.65.216.33.325.72.325 1.171 0 .538-.191 1.115-.573 1.73-.382.616-.963 1.184-1.744 1.705-.78.52-1.756.955-2.927 1.301-1.171.347-2.546.52-4.125.52zm-.65-26.752c-1.978 0-3.5.802-4.568 2.407-1.067 1.605-1.695 3.951-1.887 7.04h12.257c0-1.406-.104-2.69-.312-3.852-.207-1.163-.538-2.16-.989-2.993-.451-.833-1.045-1.475-1.782-1.926-.737-.45-1.644-.676-2.72-.676z"/>
    </g>
</svg>
