<svg xmlns="http://www.w3.org/2000/svg" xmlns:xlink="http://www.w3.org/1999/xlink" width="246" height="92" viewBox="0 0 246 92">
    <defs>
        <rect id="b" width="236" height="82" rx="14.4"/>
        <filter id="a" width="107.2%" height="120.7%" x="-3.6%" y="-7.9%" filterUnits="objectBoundingBox">
            <feOffset dy="2" in="SourceAlpha" result="shadowOffsetOuter1"/>
            <feGaussianBlur in="shadowOffsetOuter1" result="shadowBlurOuter1" stdDeviation="2.5"/>
            <feColorMatrix in="shadowBlurOuter1" values="0 0 0 0 0 0 0 0 0 0 0 0 0 0 0 0 0 0 0.15 0"/>
        </filter>
    </defs>
    <g fill="none" fill-rule="evenodd">
        <g transform="translate(5 3)">
            <use fill="#000" filter="url(#a)" xlink:href="#b"/>
            <use fill="#FFF" xlink:href="#b"/>
        </g>
        <g fill-rule="nonzero">
            <path fill="#353535" d="M46.578 56.067H33.96v-1.85h.128c.498 0 .964-.035 1.398-.107a2.741 2.741 0 0 0 1.132-.44c.32-.223.576-.542.768-.957.193-.416.289-.968.289-1.656v-13.74c0-.645-.096-1.164-.289-1.559a2.233 2.233 0 0 0-.779-.913 2.92 2.92 0 0 0-1.142-.43 8.456 8.456 0 0 0-1.377-.108h-.128v-1.85h6.725l.833 4.366h.214c.284-.66.576-1.28.875-1.86.3-.58.666-1.09 1.1-1.526a4.6 4.6 0 0 1 1.612-1.033c.64-.25 1.444-.376 2.413-.376 1.594 0 2.779.28 3.555.839.775.559 1.163 1.347 1.163 2.365 0 .459-.074.882-.224 1.269-.15.387-.388.72-.715 1-.327.28-.747.494-1.26.645-.512.15-1.138.225-1.879.225 0-1.218-.17-2.096-.512-2.634-.342-.537-.94-.806-1.794-.806-.54 0-1.025.154-1.452.463a4.33 4.33 0 0 0-1.12 1.225 8.105 8.105 0 0 0-.812 1.753 16.03 16.03 0 0 0-.534 2.032 19.211 19.211 0 0 0-.288 2.075 22.794 22.794 0 0 0-.085 1.87v6.924c0 .645.096 1.165.288 1.559.192.394.452.691.78.892a3 3 0 0 0 1.141.398c.435.064.894.097 1.378.097h1.217v1.848zM76.15 51.272c0 .645.096 1.165.289 1.559.192.394.452.692.779.892a3 3 0 0 0 1.142.398c.434.064.893.097 1.377.097h.128v1.85h-6.939l-.576-3.57h-.214c-.441.831-.928 1.505-1.462 2.02a6.7 6.7 0 0 1-1.697 1.216 6.687 6.687 0 0 1-1.88.602 12.62 12.62 0 0 1-2.049.161c-1.153 0-2.178-.165-3.075-.495a5.436 5.436 0 0 1-2.263-1.548c-.612-.703-1.078-1.599-1.399-2.688-.32-1.09-.48-2.386-.48-3.892V37.317c0-.646-.096-1.165-.288-1.56a2.233 2.233 0 0 0-.78-.913 2.92 2.92 0 0 0-1.142-.43 8.456 8.456 0 0 0-1.377-.108h-.128v-1.849h7.836V47.66c0 .96.074 1.813.224 2.558.15.746.399 1.377.747 1.893.349.516.818.906 1.41 1.172.59.265 1.327.398 2.209.398.968 0 1.797-.172 2.487-.516a4.605 4.605 0 0 0 1.709-1.452c.448-.623.779-1.372.993-2.247.213-.874.32-1.842.32-2.902v-9.074c0-.688-.096-1.244-.288-1.666-.192-.423-.449-.745-.769-.968a2.735 2.735 0 0 0-1.131-.44 8.594 8.594 0 0 0-1.399-.108h-.128v-1.85h7.815v18.815zM92.59 34.22c-.839 0-1.519.12-2.038.356-.52.236-.925.57-1.217 1-.292.43-.488.939-.587 1.526-.1.588-.15 1.226-.15 1.914-1.21 0-2.132-.208-2.765-.623-.633-.416-.95-1.133-.95-2.15 0-.76.207-1.405.62-1.936.412-.53.978-.964 1.697-1.3.718-.338 1.554-.585 2.508-.743a18.704 18.704 0 0 1 3.054-.236c1.338 0 2.505.133 3.501.398.997.265 1.83.699 2.498 1.3.67.602 1.171 1.388 1.505 2.355.335.967.502 2.154.502 3.559v11.417c0 .617.05 1.125.15 1.526.1.402.256.724.47.968.213.244.494.416.843.516.35.1.765.15 1.25.15h.128v1.85h-5.915l-.683-3.785h-.363a39.133 39.133 0 0 1-1.324 1.699c-.426.516-.896.96-1.409 1.333a6.107 6.107 0 0 1-1.74.87c-.648.208-1.427.313-2.338.313-.968 0-1.868-.14-2.7-.42a5.676 5.676 0 0 1-2.157-1.29c-.605-.58-1.079-1.311-1.42-2.193-.342-.881-.513-1.924-.513-3.128 0-2.337.826-4.071 2.477-5.204 1.651-1.132 4.15-1.748 7.494-1.849l3.63-.129V39.64c0-.788-.043-1.515-.128-2.182s-.27-1.24-.555-1.72a2.874 2.874 0 0 0-1.228-1.119c-.534-.265-1.25-.397-2.146-.397zm-5.295 15.46c0 1.377.289 2.405.865 3.086.577.681 1.47 1.022 2.68 1.022.882 0 1.683-.144 2.402-.43a5.117 5.117 0 0 0 1.836-1.226 5.378 5.378 0 0 0 1.164-1.935c.27-.76.405-1.605.405-2.537v-3.57l-2.797.13c-1.238.057-2.274.21-3.106.462-.833.25-1.506.602-2.018 1.054a3.779 3.779 0 0 0-1.1 1.666c-.22.659-.33 1.419-.33 2.279zM118.468 54.218v1.849h-11.765v-1.85h.363c.498 0 .965-.035 1.399-.107a2.741 2.741 0 0 0 1.132-.44c.32-.223.576-.542.768-.957.192-.416.288-.968.288-1.656v-13.74c0-.645-.096-1.164-.288-1.559a2.233 2.233 0 0 0-.78-.913 2.92 2.92 0 0 0-1.141-.43 8.456 8.456 0 0 0-1.378-.108h-.128v-1.85h7.068l.576 3.57h.214c.455-.817.935-1.487 1.44-2.01a6.291 6.291 0 0 1 1.602-1.226 6.015 6.015 0 0 1 1.794-.602 11.903 11.903 0 0 1 1.996-.16c1.153 0 2.181.168 3.085.504a5.817 5.817 0 0 1 2.306 1.549c.633.695 1.117 1.587 1.452 2.677.334 1.09.502 2.386.502 3.892v10.407c0 .688.081 1.24.245 1.655.164.416.395.735.694.957.299.222.655.37 1.068.44.412.072.86.108 1.345.108h.15v1.85h-7.623V40.866c0-.96-.085-1.814-.256-2.559-.171-.745-.445-1.376-.822-1.892a3.55 3.55 0 0 0-1.484-1.172c-.612-.265-1.36-.398-2.242-.398-.997 0-1.833.193-2.509.58-.676.387-1.22.91-1.633 1.57-.413.66-.708 1.42-.886 2.28-.178.86-.267 1.763-.267 2.709v9.289c0 .645.096 1.165.288 1.559.192.394.452.691.78.892a3 3 0 0 0 1.142.398c.434.064.893.097 1.377.097h.128v-.001zM156.687 33.382c0 .315-.046.613-.139.892-.092.28-.231.524-.416.731a1.941 1.941 0 0 1-.715.495 2.677 2.677 0 0 1-1.036.183 2.14 2.14 0 0 0-.064-.516 1.427 1.427 0 0 0-.224-.484 1.165 1.165 0 0 0-.437-.366c-.185-.093-.427-.14-.726-.14-.37 0-.705.043-1.004.13-.3.085-.59.222-.875.408a7.965 7.965 0 0 1 1.227 2.182c.32.84.48 1.889.48 3.15 0 1.09-.163 2.097-.49 3.021a6.584 6.584 0 0 1-1.463 2.398c-.647.673-1.466 1.2-2.455 1.58-.99.38-2.146.57-3.47.57-.17 0-.363-.004-.576-.01l-.64-.022a7.385 7.385 0 0 1-.599-.043l-.448-.054a7.551 7.551 0 0 0-.812.473c-.256.172-.48.366-.672.58a2.59 2.59 0 0 0-.46.732c-.114.272-.17.574-.17.903 0 .358.067.645.202.86.135.215.324.384.566.506.242.121.53.2.865.236.334.036.694.054 1.078.054h4.954c1.31 0 2.42.164 3.33.494.912.33 1.655.785 2.232 1.366a5.19 5.19 0 0 1 1.26 2.086c.263.81.394 1.687.394 2.634 0 1.261-.231 2.401-.694 3.419-.462 1.017-1.17 1.88-2.124 2.59-.954.71-2.16 1.258-3.62 1.645-1.458.387-3.177.58-5.156.58-3.045 0-5.323-.566-6.832-1.698-1.509-1.132-2.263-2.709-2.263-4.73 0-.86.15-1.613.448-2.258a5.11 5.11 0 0 1 1.207-1.656 6.364 6.364 0 0 1 1.74-1.118 9.116 9.116 0 0 1 2.071-.623c-.299-.129-.59-.301-.875-.516a3.946 3.946 0 0 1-1.324-1.806 3.716 3.716 0 0 1-.213-1.29c0-.875.228-1.63.683-2.269.456-.638 1.181-1.258 2.178-1.86a5.604 5.604 0 0 1-1.676-1.064 6.5 6.5 0 0 1-1.238-1.548 7.602 7.602 0 0 1-.769-1.903 8.482 8.482 0 0 1-.267-2.13c0-1.275.171-2.415.513-3.418.342-1.004.854-1.856 1.537-2.559.684-.702 1.538-1.24 2.562-1.612 1.025-.373 2.228-.56 3.609-.56a10.226 10.226 0 0 1 2.978.442c.434.136.826.29 1.175.462.349.172.63.352.843.538.214-.23.463-.484.748-.764.284-.28.604-.537.96-.773a5.726 5.726 0 0 1 1.164-.592c.42-.158.872-.236 1.356-.236.441 0 .822.06 1.142.183.32.122.587.286.8.494.214.208.374.452.481.731.106.279.159.57.159.87zM138.24 59.937c0 .645.085 1.247.256 1.806.17.56.47 1.04.896 1.441.427.402 1.004.717 1.73.946.726.23 1.644.344 2.754.344 1.566 0 2.858-.132 3.876-.398 1.017-.265 1.825-.634 2.423-1.107.598-.473 1.018-1.036 1.26-1.688a6.106 6.106 0 0 0 .363-2.14c0-.673-.097-1.228-.289-1.665a2.337 2.337 0 0 0-.854-1.033c-.377-.25-.843-.426-1.398-.526-.555-.1-1.196-.151-1.922-.151h-4.292a9.69 9.69 0 0 0-1.783.161 4.07 4.07 0 0 0-1.537.613c-.449.301-.808.724-1.078 1.268-.27.545-.405 1.255-.405 2.13zm2.54-19.89c0 1.878.31 3.255.929 4.13.619.873 1.633 1.31 3.043 1.31.711 0 1.313-.107 1.804-.322a2.85 2.85 0 0 0 1.206-.989c.313-.444.537-1.014.673-1.71.135-.695.203-1.522.203-2.483 0-1.978-.3-3.44-.897-4.386-.598-.946-1.609-1.42-3.032-1.42-1.41 0-2.416.485-3.021 1.452-.605.968-.908 2.44-.908 4.419z"/>
            <path fill="#F29F05" d="M158.352 54.218c.498 0 .965-.036 1.399-.108a2.741 2.741 0 0 0 1.131-.44c.32-.223.577-.542.769-.957.192-.416.288-.968.288-1.656v-23.61c0-.644-.096-1.164-.288-1.558a2.233 2.233 0 0 0-.78-.914 2.8 2.8 0 0 0-1.141-.42 9.394 9.394 0 0 0-1.378-.096h-.555v-1.85h8.263v28.448c0 .688.093 1.24.278 1.656.185.415.441.734.768.956.328.223.708.37 1.142.44.435.073.9.109 1.4.109h.554v1.849h-12.405v-1.85h.555zM183.333 56.497c-1.58 0-3-.269-4.26-.806a8.436 8.436 0 0 1-3.191-2.355c-.869-1.032-1.534-2.297-1.997-3.795-.462-1.498-.694-3.2-.694-5.106 0-4.114.84-7.21 2.52-9.29 1.68-2.078 4.07-3.117 7.174-3.117 1.41 0 2.676.222 3.8.667a7.41 7.41 0 0 1 2.861 1.989c.783.881 1.384 1.978 1.804 3.29.42 1.31.63 2.834.63 4.568v2.021h-14.56c.028 1.606.188 2.986.48 4.14.292 1.154.712 2.103 1.26 2.849.547.745 1.22 1.294 2.017 1.645.797.35 1.715.526 2.754.526.755 0 1.455-.085 2.103-.257a7.932 7.932 0 0 0 1.762-.689 7.265 7.265 0 0 0 1.398-.978c.406-.365.737-.749.993-1.15.2.086.389.265.566.538.178.272.267.595.267.967 0 .445-.157.921-.47 1.43-.313.509-.79.978-1.43 1.408-.641.43-1.442.789-2.402 1.076-.961.286-2.09.429-3.385.429zm-.533-22.104c-1.623 0-2.872.663-3.748 1.989-.875 1.326-1.39 3.265-1.548 5.816h10.057c0-1.161-.086-2.222-.256-3.183-.171-.96-.442-1.784-.812-2.472-.37-.689-.857-1.219-1.462-1.592-.605-.372-1.349-.558-2.231-.558zM203.36 56.497c-1.095 0-2.088-.097-2.978-.29-.89-.194-1.648-.488-2.274-.882-.626-.394-1.11-.882-1.452-1.462-.341-.58-.512-1.258-.512-2.032 0-.588.096-1.079.288-1.473.192-.394.427-.706.705-.935.278-.23.576-.39.897-.484.32-.093.608-.14.864-.14 0 .774.079 1.498.235 2.172.157.673.42 1.265.79 1.774.37.509.858.91 1.463 1.204.604.294 1.348.44 2.23.44.784 0 1.474-.096 2.072-.29.597-.193 1.1-.466 1.505-.817.405-.351.715-.774.929-1.269.213-.494.32-1.035.32-1.623 0-.545-.082-1.014-.245-1.409-.164-.394-.449-.763-.855-1.107-.405-.344-.957-.695-1.654-1.053a46.537 46.537 0 0 0-2.627-1.226 36.498 36.498 0 0 1-2.935-1.452c-.833-.465-1.52-.97-2.06-1.515a5.394 5.394 0 0 1-1.218-1.86c-.27-.695-.405-1.523-.405-2.484 0-1.003.195-1.892.587-2.666a5.351 5.351 0 0 1 1.676-1.946c.725-.523 1.594-.921 2.605-1.193 1.01-.273 2.135-.409 3.373-.409 1.04 0 1.957.108 2.754.323.797.215 1.467.505 2.007.87.541.366.947.796 1.217 1.29.27.495.406 1.015.406 1.56 0 .802-.274 1.444-.822 1.924-.548.48-1.328.72-2.338.72 0-1.476-.303-2.623-.908-3.44-.605-.817-1.555-1.225-2.85-1.225-.74 0-1.374.085-1.9.257-.527.172-.958.416-1.292.732-.335.315-.58.688-.737 1.118-.157.43-.234.903-.234 1.419 0 .559.1 1.043.299 1.451.199.408.515.785.95 1.129.434.344.996.677 1.686 1 .69.322 1.52.684 2.488 1.086 1.152.487 2.142.967 2.968 1.44.825.474 1.505.99 2.038 1.549.534.559.93 1.19 1.186 1.892.256.702.384 1.512.384 2.43 0 1.146-.206 2.15-.62 3.01a5.922 5.922 0 0 1-1.75 2.16c-.754.581-1.662 1.015-2.722 1.302-1.06.286-2.238.43-3.533.43z"/>
        </g>
    </g>
</svg>
