<svg xmlns="http://www.w3.org/2000/svg" width="401" height="53" viewBox="0 0 401 53">
    <g fill="none" fill-rule="nonzero">
        <path fill="#353535" d="M23.986 34.503c0 .766.115 1.384.345 1.852.23.468.54.83.932 1.085.391.256.847.422 1.366.498.52.077 1.069.115 1.648.115h.434v2.196h-8.863l-.562-4.7h-.204c-.392.8-.84 1.52-1.341 2.159a8.04 8.04 0 0 1-1.724 1.635c-.648.45-1.38.8-2.197 1.047-.817.247-1.737.37-2.758.37-1.72 0-3.244-.285-4.572-.855-1.328-.57-2.444-1.447-3.346-2.63C2.24 36.09 1.56 34.587 1.1 32.765.64 30.944.41 28.782.41 26.28c0-2.52.23-4.7.69-6.539.46-1.84 1.141-3.354 2.044-4.546.902-1.192 2.017-2.073 3.346-2.644 1.328-.57 2.852-.855 4.572-.855 1.004 0 1.915.11 2.733.331a8.189 8.189 0 0 1 2.209.945 8.244 8.244 0 0 1 1.75 1.456c.51.562.953 1.184 1.328 1.865h.306c-.051-.852-.102-1.652-.154-2.4l-.102-1.93a29.282 29.282 0 0 1-.051-1.417V6.254c0-.766-.115-1.384-.345-1.852-.23-.468-.54-.83-.932-1.085a3.364 3.364 0 0 0-1.366-.498 11.316 11.316 0 0 0-1.648-.115h-.434V.507h9.629v33.996zm-12.03 2.912c1.362 0 2.498-.226 3.41-.677.91-.45 1.642-1.136 2.196-2.056.553-.92.945-2.077 1.175-3.474.23-1.396.345-3.039.345-4.93 0-1.821-.116-3.43-.345-4.827-.23-1.396-.622-2.567-1.175-3.512-.554-.944-1.29-1.664-2.21-2.158-.919-.494-2.068-.74-3.447-.74-1.141 0-2.12.246-2.938.74-.817.494-1.485 1.218-2.005 2.171-.519.954-.898 2.133-1.136 3.538-.238 1.405-.358 3.018-.358 4.84 0 3.712.503 6.488 1.507 8.327 1.005 1.839 2.665 2.758 4.98 2.758zM31.52 38.053c.58 0 1.129-.038 1.648-.114.52-.077.975-.234 1.366-.473.391-.238.702-.591.932-1.06.23-.468.345-1.085.345-1.852V17.978c0-.766-.115-1.383-.345-1.852-.23-.468-.54-.83-.932-1.085a3.51 3.51 0 0 0-1.366-.51 10.186 10.186 0 0 0-1.648-.129h-.153v-2.196h9.348v22.093c0 .818.115 1.473.345 1.967.23.494.536.872.92 1.136a3.3 3.3 0 0 0 1.366.524c.528.085 1.081.127 1.66.127h.69v2.197H30.83v-2.197h.69zm3.55-34.327c0-.613.077-1.124.23-1.533.154-.408.366-.74.64-.996.272-.255.587-.434.944-.536.358-.102.75-.153 1.175-.153.409 0 .792.05 1.15.153.357.102.667.28.931.536.264.255.477.588.639.996.161.41.242.92.242 1.533 0 .613-.08 1.123-.242 1.532-.162.409-.375.74-.639.997a2.306 2.306 0 0 1-.932.549 3.85 3.85 0 0 1-1.149.166c-.425 0-.817-.056-1.175-.166a2.393 2.393 0 0 1-.945-.55 2.579 2.579 0 0 1-.638-.996c-.154-.409-.23-.92-.23-1.532zM73.868 13.304c0 .374-.055.727-.166 1.06-.11.331-.277.621-.498.868a2.322 2.322 0 0 1-.855.587c-.35.145-.762.218-1.24.218 0-.205-.025-.41-.076-.613a1.69 1.69 0 0 0-.268-.575 1.39 1.39 0 0 0-.523-.435c-.221-.11-.51-.166-.869-.166-.442 0-.842.051-1.2.154a3.865 3.865 0 0 0-1.047.485c.595.732 1.085 1.596 1.468 2.592.383.997.575 2.244.575 3.742 0 1.294-.196 2.49-.588 3.59a7.805 7.805 0 0 1-1.749 2.847c-.775.8-1.754 1.426-2.937 1.877-1.184.451-2.567.677-4.15.677-.205 0-.435-.004-.69-.013l-.767-.025a8.912 8.912 0 0 1-.715-.051l-.536-.064c-.34.17-.664.358-.97.562a4.232 4.232 0 0 0-.805.69c-.23.255-.413.545-.55.868a2.742 2.742 0 0 0-.204 1.073c0 .425.081.766.243 1.022.162.255.387.455.676.6.29.145.635.238 1.035.28.4.043.83.064 1.29.064h5.925c1.567 0 2.895.196 3.985.588 1.09.392 1.98.932 2.669 1.622a6.161 6.161 0 0 1 1.507 2.478c.315.962.472 2.005.472 3.129 0 1.498-.276 2.852-.83 4.061-.553 1.209-1.4 2.235-2.541 3.078s-2.584 1.494-4.33 1.954c-1.745.46-3.8.689-6.168.689-3.644 0-6.368-.673-8.173-2.018-1.805-1.345-2.708-3.218-2.708-5.619 0-1.021.18-1.915.536-2.681a6.072 6.072 0 0 1 1.444-1.967 7.62 7.62 0 0 1 2.081-1.328c.784-.34 1.61-.587 2.478-.74a5.091 5.091 0 0 1-1.047-.613 4.7 4.7 0 0 1-1.583-2.145c-.17-.46-.256-.972-.256-1.533 0-1.039.273-1.937.818-2.695.544-.758 1.413-1.494 2.605-2.21a6.71 6.71 0 0 1-2.005-1.264 7.709 7.709 0 0 1-1.481-1.839 8.986 8.986 0 0 1-.92-2.26 9.986 9.986 0 0 1-.319-2.53c0-1.515.205-2.868.613-4.06.409-1.192 1.022-2.205 1.84-3.04.817-.834 1.839-1.472 3.064-1.915 1.226-.443 2.665-.664 4.317-.664a12.317 12.317 0 0 1 3.563.524c.52.162.988.345 1.405.549a4.7 4.7 0 0 1 1.009.638c.255-.272.553-.574.894-.906.34-.332.724-.639 1.15-.92.425-.28.889-.515 1.39-.702a4.602 4.602 0 0 1 1.623-.28c.528 0 .984.072 1.366.217.383.144.702.34.958.587.256.247.447.536.575.869.127.33.19.674.19 1.032zM51.8 44.848c0 .766.102 1.481.307 2.145a3.857 3.857 0 0 0 1.072 1.711c.511.477 1.201.852 2.07 1.124.868.273 1.966.409 3.294.409 1.873 0 3.419-.158 4.636-.473 1.218-.314 2.184-.753 2.9-1.315.714-.562 1.217-1.23 1.506-2.005.29-.774.434-1.622.434-2.541 0-.8-.115-1.46-.345-1.98a2.78 2.78 0 0 0-1.021-1.226c-.451-.298-1.01-.506-1.673-.625-.665-.12-1.431-.18-2.3-.18h-5.133c-.733 0-1.443.064-2.133.192s-1.303.37-1.84.728c-.535.358-.965.86-1.289 1.507-.323.647-.485 1.49-.485 2.529zm3.04-23.627c0 2.231.37 3.866 1.11 4.904.741 1.039 1.955 1.558 3.64 1.558.852 0 1.571-.127 2.159-.383a3.406 3.406 0 0 0 1.443-1.175c.374-.528.642-1.205.804-2.03.162-.826.243-1.81.243-2.95 0-2.35-.358-4.087-1.073-5.21-.715-1.125-1.924-1.687-3.627-1.687-1.685 0-2.89.575-3.614 1.724-.723 1.15-1.085 2.9-1.085 5.25zM76.397 38.053c.579 0 1.128-.038 1.648-.114.519-.077.974-.234 1.366-.473.391-.238.702-.591.932-1.06.23-.468.345-1.085.345-1.852V17.978c0-.766-.115-1.383-.345-1.852-.23-.468-.54-.83-.932-1.085a3.51 3.51 0 0 0-1.366-.51 10.186 10.186 0 0 0-1.648-.129h-.153v-2.196h9.348v22.093c0 .818.115 1.473.345 1.967.23.494.536.872.92 1.136a3.3 3.3 0 0 0 1.366.524c.528.085 1.081.127 1.66.127h.69v2.197H75.706v-2.197h.69zm3.55-34.327c0-.613.077-1.124.23-1.533.154-.408.366-.74.639-.996.272-.255.587-.434.945-.536.357-.102.749-.153 1.174-.153.409 0 .792.05 1.15.153.357.102.668.28.932.536.264.255.477.588.638.996.162.41.243.92.243 1.533 0 .613-.081 1.123-.243 1.532-.161.409-.374.74-.638.997a2.306 2.306 0 0 1-.932.549 3.85 3.85 0 0 1-1.15.166c-.425 0-.817-.056-1.174-.166a2.397 2.397 0 0 1-.945-.55 2.579 2.579 0 0 1-.639-.996c-.153-.409-.23-.92-.23-1.532zM105.106 38.003c.63 0 1.208-.035 1.736-.102a29.018 29.018 0 0 0 1.61-.256v2.3c-.221.101-.51.204-.869.305-.357.102-.745.192-1.162.269a15.024 15.024 0 0 1-2.617.242c-1.329 0-2.47-.14-3.423-.421-.954-.281-1.737-.737-2.35-1.367s-1.069-1.464-1.366-2.503c-.298-1.038-.447-2.307-.447-3.806v-17.47h-3.985v-2.095c.63 0 1.324-.128 2.082-.383a4.986 4.986 0 0 0 2.005-1.277 7.67 7.67 0 0 0 1.443-2.312c.366-.894.686-2.013.958-3.359h2.401v6.437h6.845v2.988h-6.845v17.624c0 1.787.362 3.099 1.085 3.933.724.835 1.69 1.253 2.899 1.253zM123.674 14.3c-1.004 0-1.817.14-2.439.421-.62.281-1.106.677-1.456 1.188-.349.51-.583 1.115-.702 1.813-.119.699-.179 1.456-.179 2.274-1.447 0-2.55-.247-3.307-.74-.758-.495-1.136-1.346-1.136-2.555 0-.902.246-1.669.74-2.299.494-.63 1.17-1.145 2.03-1.545.86-.4 1.86-.694 3.001-.881a22.53 22.53 0 0 1 3.653-.28c1.6 0 2.997.157 4.189.472 1.192.315 2.188.83 2.988 1.545.8.715 1.4 1.647 1.8 2.796.4 1.15.601 2.559.601 4.228v13.562c0 .732.06 1.337.179 1.813.12.477.306.86.562 1.15.255.289.592.493 1.01.613.416.119.914.178 1.493.178h.154v2.197h-7.075l-.818-4.495h-.434a46.531 46.531 0 0 1-1.583 2.017 9.199 9.199 0 0 1-1.686 1.584 7.326 7.326 0 0 1-2.082 1.034c-.775.247-1.707.37-2.797.37-1.158 0-2.234-.166-3.23-.497a6.8 6.8 0 0 1-2.58-1.533c-.724-.69-1.29-1.558-1.699-2.605-.409-1.047-.613-2.286-.613-3.716 0-2.775.988-4.836 2.963-6.181 1.975-1.346 4.964-2.077 8.965-2.197l4.342-.153v-3.142c0-.936-.05-1.8-.153-2.592-.102-.792-.324-1.473-.664-2.044-.34-.57-.83-1.013-1.47-1.328-.638-.315-1.494-.472-2.567-.472zm-6.334 18.364c0 1.635.345 2.857 1.034 3.665.69.81 1.759 1.214 3.206 1.214 1.056 0 2.013-.17 2.873-.51a6.118 6.118 0 0 0 2.197-1.457c.604-.63 1.068-1.396 1.391-2.299.324-.902.486-1.907.486-3.013v-4.24l-3.347.153c-1.481.068-2.72.251-3.716.55-.996.297-1.8.714-2.413 1.25a4.486 4.486 0 0 0-1.316 1.98c-.264.784-.395 1.686-.395 2.707zM140.455 38.053c.596 0 1.154-.042 1.673-.127.52-.086.971-.26 1.354-.524.383-.264.69-.642.919-1.136.23-.494.345-1.15.345-1.967V6.255c0-.767-.115-1.384-.345-1.852-.23-.469-.54-.83-.932-1.086a3.367 3.367 0 0 0-1.366-.498 11.316 11.316 0 0 0-1.648-.115h-.664V.508h9.885v33.791c0 .818.11 1.473.332 1.967.221.494.528.872.92 1.136.391.264.846.438 1.365.524.52.085 1.077.127 1.674.127h.664v2.197h-14.84v-2.197h.664z"/>
        <path fill="#72BA43" d="M184.566 26.176c0 2.52-.234 4.7-.702 6.54-.469 1.838-1.154 3.354-2.057 4.546-.902 1.192-2.017 2.073-3.346 2.643-1.328.57-2.852.856-4.572.856-1.004 0-1.915-.111-2.733-.332a8.189 8.189 0 0 1-2.209-.945 7.975 7.975 0 0 1-1.737-1.456 10.05 10.05 0 0 1-1.315-1.865h-.332l-.919 4.087h-8.378v-2.197h.41c.595 0 1.153-.042 1.672-.127.52-.086.971-.26 1.354-.524.383-.264.69-.642.92-1.136.229-.494.344-1.15.344-1.967V6.255c0-.767-.115-1.384-.345-1.852-.23-.469-.54-.83-.932-1.086a3.367 3.367 0 0 0-1.366-.498 11.316 11.316 0 0 0-1.648-.115h-.409V.508h9.63v9.603a96.187 96.187 0 0 1-.102 4.291c-.034.818-.069 1.66-.103 2.529h.205c.392-.8.834-1.524 1.328-2.171a7.65 7.65 0 0 1 1.711-1.648 7.717 7.717 0 0 1 2.196-1.047c.818-.247 1.737-.37 2.759-.37 1.72 0 3.244.285 4.572.855 1.328.57 2.443 1.448 3.346 2.63.902 1.184 1.588 2.687 2.056 4.509.467 1.822.702 3.985.702 6.487zm-11.57-11.136c-1.363 0-2.5.226-3.41.677-.911.451-1.64 1.136-2.184 2.056-.545.92-.932 2.078-1.162 3.474-.23 1.396-.345 3.04-.345 4.93 0 1.821.115 3.43.345 4.827.23 1.396.622 2.571 1.175 3.524.554.954 1.286 1.674 2.197 2.159.91.485 2.056.727 3.435.727 1.158 0 2.141-.242 2.95-.727.809-.485 1.473-1.205 1.992-2.159.52-.953.899-2.132 1.137-3.537.238-1.405.357-3.027.357-4.866 0-1.856-.119-3.478-.357-4.866-.239-1.388-.617-2.541-1.137-3.46-.519-.92-1.192-1.61-2.017-2.07-.827-.459-1.819-.689-2.976-.689zM214.73 26.176c0 4.921-1.043 8.582-3.129 10.983-2.085 2.4-5.137 3.602-9.156 3.602-1.89 0-3.584-.299-5.083-.894a9.736 9.736 0 0 1-3.819-2.708c-1.047-1.21-1.847-2.728-2.4-4.559-.554-1.83-.83-3.972-.83-6.424 0-4.886 1.034-8.522 3.102-10.906 2.07-2.384 5.13-3.576 9.183-3.576 1.89 0 3.584.294 5.082.881a9.682 9.682 0 0 1 3.819 2.682c1.047 1.201 1.847 2.708 2.4 4.521.555 1.814.832 3.947.832 6.398zm-19.36 0c0 1.942.128 3.653.383 5.134.255 1.482.668 2.72 1.239 3.716.57.997 1.311 1.75 2.222 2.261.91.51 2.022.766 3.333.766 1.311 0 2.418-.255 3.32-.766.903-.51 1.636-1.264 2.197-2.26.562-.997.966-2.235 1.214-3.717.246-1.481.37-3.192.37-5.134 0-1.94-.127-3.643-.383-5.108-.256-1.465-.664-2.686-1.226-3.665-.562-.98-1.299-1.716-2.21-2.21-.91-.493-2.022-.74-3.333-.74-1.311 0-2.418.247-3.32.74-.903.494-1.635 1.23-2.197 2.21-.562.979-.97 2.2-1.226 3.665-.255 1.464-.383 3.167-.383 5.108zM244.92 26.176c0 4.921-1.043 8.582-3.128 10.983-2.086 2.4-5.138 3.602-9.157 3.602-1.89 0-3.584-.299-5.083-.894a9.736 9.736 0 0 1-3.819-2.708c-1.047-1.209-1.847-2.728-2.4-4.559-.554-1.83-.83-3.972-.83-6.424 0-4.886 1.034-8.522 3.102-10.906 2.07-2.384 5.13-3.576 9.183-3.576 1.89 0 3.584.294 5.083.881a9.682 9.682 0 0 1 3.818 2.682c1.047 1.201 1.848 2.708 2.401 4.521.554 1.814.83 3.947.83 6.398zm-19.36 0c0 1.942.128 3.653.383 5.134.255 1.482.669 2.72 1.239 3.716.57.997 1.311 1.75 2.222 2.261.911.51 2.022.766 3.333.766 1.312 0 2.418-.255 3.32-.766.903-.51 1.636-1.264 2.197-2.26.562-.997.967-2.235 1.214-3.717.246-1.481.37-3.192.37-5.134 0-1.94-.128-3.643-.383-5.108-.255-1.465-.664-2.686-1.226-3.665-.562-.98-1.299-1.716-2.21-2.21-.91-.493-2.021-.74-3.333-.74-1.31 0-2.418.247-3.32.74-.903.494-1.635 1.23-2.197 2.21-.561.979-.97 2.2-1.226 3.665-.255 1.465-.383 3.167-.383 5.108zM261.676 38.003c.63 0 1.209-.035 1.737-.102a29.018 29.018 0 0 0 1.609-.256v2.3c-.221.101-.51.204-.868.305-.358.102-.746.192-1.162.269a15.024 15.024 0 0 1-2.618.242c-1.328 0-2.47-.14-3.423-.421-.953-.281-1.737-.737-2.35-1.367s-1.068-1.464-1.366-2.503c-.298-1.038-.447-2.307-.447-3.806v-17.47h-3.985v-2.095c.63 0 1.324-.128 2.082-.383a4.986 4.986 0 0 0 2.005-1.277 7.67 7.67 0 0 0 1.443-2.312c.366-.894.686-2.013.958-3.359h2.401v6.437h6.845v2.988h-6.845v17.624c0 1.787.362 3.099 1.086 3.933.723.835 1.689 1.253 2.898 1.253zM281.037 40.761c-1.737 0-3.338-.268-4.802-.805a9.436 9.436 0 0 1-3.78-2.541c-1.056-1.158-1.878-2.643-2.465-4.457-.588-1.813-.881-4.006-.881-6.577 0-2.793.293-5.13.88-7.012.588-1.881 1.406-3.392 2.453-4.533 1.047-1.141 2.281-1.95 3.703-2.426 1.422-.477 2.959-.715 4.61-.715 1.09 0 2.176.106 3.257.319 1.082.213 2.057.54 2.925.983.868.443 1.575 1 2.12 1.673.545.673.817 1.46.817 2.363 0 1.209-.391 2.06-1.174 2.554-.784.494-1.95.74-3.5.74 0-.817-.068-1.592-.204-2.324-.136-.732-.37-1.375-.702-1.928a3.551 3.551 0 0 0-1.353-1.303c-.57-.315-1.299-.472-2.184-.472-1.005 0-1.912.187-2.72.562-.81.374-1.503 1.022-2.082 1.941-.58.92-1.022 2.154-1.328 3.703-.307 1.55-.46 3.491-.46 5.824 0 3.712.617 6.479 1.852 8.3 1.234 1.823 3.256 2.734 6.066 2.734 1.617 0 3.031-.34 4.24-1.022 1.209-.68 2.111-1.558 2.707-2.63.256.204.469.477.639.817.17.34.255.75.255 1.226 0 .596-.187 1.192-.562 1.788-.374.596-.932 1.132-1.673 1.609-.74.476-1.664.864-2.771 1.162-1.107.297-2.402.447-3.883.447zM305.99 14.3c-1.004 0-1.817.14-2.439.421-.62.281-1.106.677-1.456 1.188-.349.51-.583 1.115-.702 1.813-.12.699-.179 1.456-.179 2.274-1.447 0-2.55-.247-3.307-.74-.758-.495-1.137-1.346-1.137-2.555 0-.902.247-1.669.74-2.299.495-.63 1.172-1.145 2.031-1.545.86-.4 1.86-.694 3.001-.881a22.588 22.588 0 0 1 3.653-.28c1.6 0 2.997.157 4.189.472 1.192.315 2.188.83 2.988 1.545.8.715 1.4 1.647 1.8 2.796.4 1.15.601 2.559.601 4.228v13.562c0 .732.06 1.337.179 1.813.12.477.306.86.562 1.15.255.289.592.493 1.009.613.417.119.915.178 1.494.178h.154v2.197h-7.075l-.818-4.495h-.434a46.531 46.531 0 0 1-1.583 2.017 9.199 9.199 0 0 1-1.686 1.584 7.326 7.326 0 0 1-2.082 1.034c-.775.247-1.707.37-2.797.37-1.158 0-2.234-.166-3.23-.497a6.8 6.8 0 0 1-2.58-1.533c-.724-.69-1.29-1.558-1.699-2.605-.409-1.047-.613-2.286-.613-3.716 0-2.775.988-4.836 2.963-6.181 1.975-1.346 4.964-2.077 8.965-2.197l4.342-.153v-3.142c0-.936-.051-1.8-.153-2.592-.103-.792-.324-1.473-.664-2.044-.34-.57-.83-1.013-1.47-1.328-.638-.315-1.494-.472-2.567-.472zm-6.334 18.364c0 1.635.345 2.857 1.035 3.665.69.81 1.758 1.214 3.205 1.214 1.056 0 2.014-.17 2.874-.51a6.118 6.118 0 0 0 2.196-1.457c.604-.63 1.069-1.396 1.392-2.299.324-.902.485-1.907.485-3.013v-4.24l-3.346.153c-1.481.068-2.72.251-3.716.55-.996.297-1.8.714-2.413 1.25a4.483 4.483 0 0 0-1.316 1.98c-.264.783-.396 1.686-.396 2.707zM336.947 38.053v2.197h-14.074v-2.197h.69c.596 0 1.141-.042 1.635-.127.494-.086.92-.26 1.277-.524.358-.264.634-.642.83-1.136.196-.494.294-1.15.294-1.967V17.98c0-.767-.102-1.384-.307-1.853-.204-.468-.485-.83-.843-1.085a3.059 3.059 0 0 0-1.277-.51 9.485 9.485 0 0 0-1.609-.129h-.153v-2.196h8.199l.69 4.24h.255c.528-.971 1.081-1.767 1.66-2.388s1.196-1.107 1.852-1.456a6.939 6.939 0 0 1 2.069-.715 13.329 13.329 0 0 1 2.312-.192c.851 0 1.66.085 2.426.255a7.59 7.59 0 0 1 2.133.818 6.701 6.701 0 0 1 1.762 1.469c.52.604.94 1.34 1.264 2.209h.434c.528-.971 1.099-1.767 1.712-2.388a7.542 7.542 0 0 1 1.953-1.456 7.552 7.552 0 0 1 2.171-.715 14.176 14.176 0 0 1 2.363-.192c1.328 0 2.52.2 3.576.6a6.697 6.697 0 0 1 2.682 1.84c.732.825 1.294 1.885 1.686 3.18.391 1.294.588 2.835.588 4.623V34.3c0 .818.102 1.473.306 1.967.204.494.485.872.843 1.136.357.264.783.438 1.277.524.494.085 1.03.128 1.61.128h.153v2.196h-9.094V22.193c0-1.14-.097-2.154-.293-3.04-.196-.884-.51-1.634-.945-2.247a4.114 4.114 0 0 0-1.698-1.392c-.699-.315-1.55-.472-2.555-.472-1.09 0-2.004.208-2.745.626-.74.417-1.341.983-1.8 1.698-.46.715-.788 1.541-.984 2.478a14.59 14.59 0 0 0-.294 2.988v11.469c0 .817.102 1.472.306 1.966.205.494.485.873.843 1.137s.783.438 1.277.523c.494.085 1.03.128 1.61.128h.153v2.196h-9.094V22.194c0-1.141-.097-2.154-.293-3.04-.196-.885-.51-1.634-.945-2.248a4.114 4.114 0 0 0-1.698-1.391c-.699-.315-1.55-.473-2.555-.473-1.14 0-2.098.23-2.873.69a5.395 5.395 0 0 0-1.877 1.865c-.477.783-.818 1.685-1.022 2.707a16.382 16.382 0 0 0-.306 3.218v11.035c0 .766.115 1.383.345 1.851.23.469.54.822.932 1.06.392.239.847.396 1.366.473.52.076 1.069.115 1.648.115h.152v-.003zM400.086 26.176c0 2.52-.234 4.7-.702 6.54-.469 1.838-1.154 3.354-2.057 4.546-.902 1.192-2.017 2.073-3.346 2.643-1.328.57-2.852.856-4.572.856-1.004 0-1.915-.111-2.733-.332a8.189 8.189 0 0 1-2.209-.945 7.975 7.975 0 0 1-1.737-1.456 10.05 10.05 0 0 1-1.315-1.865h-.204c.034.903.068 1.746.102 2.529.017.324.03.66.038 1.01a294.268 294.268 0 0 0 .051 1.813c.009.246.013.438.013.575v5.006c0 .766.115 1.383.345 1.852.23.468.54.825.932 1.072.392.247.847.409 1.366.485.52.077 1.069.116 1.648.116h.153v2.196h-14.073v-2.196h.409c.595 0 1.153-.043 1.673-.128.519-.085.97-.26 1.353-.524s.69-.647.92-1.149c.23-.502.344-1.162.344-1.98V17.98c0-.767-.115-1.384-.345-1.852-.23-.469-.54-.83-.932-1.086a3.51 3.51 0 0 0-1.366-.51 10.186 10.186 0 0 0-1.647-.128h-.664v-2.197h9.144l.536 4.725h.204c.391-.8.834-1.523 1.328-2.17a7.65 7.65 0 0 1 1.711-1.648 7.717 7.717 0 0 1 2.197-1.047c.817-.248 1.737-.37 2.758-.37 1.72 0 3.244.285 4.572.855 1.328.57 2.444 1.447 3.346 2.63.903 1.184 1.588 2.687 2.057 4.508.468 1.822.702 3.985.702 6.487zm-11.57-11.136c-1.363 0-2.5.226-3.41.677-.912.451-1.64 1.136-2.184 2.056-.545.92-.932 2.078-1.162 3.474-.23 1.396-.345 3.04-.345 4.93 0 1.821.115 3.43.345 4.827.23 1.396.622 2.571 1.175 3.524.553.954 1.285 1.674 2.196 2.159.91.485 2.056.727 3.435.727 1.158 0 2.142-.242 2.95-.727.81-.485 1.473-1.205 1.993-2.159.519-.953.898-2.132 1.136-3.537.239-1.405.358-3.027.358-4.866 0-1.856-.12-3.478-.358-4.866-.238-1.388-.617-2.541-1.136-3.46-.52-.92-1.192-1.61-2.018-2.07-.826-.459-1.818-.689-2.976-.689z"/>
    </g>
</svg>
