<svg xmlns="http://www.w3.org/2000/svg" xmlns:xlink="http://www.w3.org/1999/xlink" width="255" height="92" viewBox="0 0 255 92">
    <defs>
        <rect id="b" width="245" height="82" rx="12"/>
        <filter id="a" width="106.9%" height="120.7%" x="-3.5%" y="-7.9%" filterUnits="objectBoundingBox">
            <feOffset dy="2" in="SourceAlpha" result="shadowOffsetOuter1"/>
            <feGaussianBlur in="shadowOffsetOuter1" result="shadowBlurOuter1" stdDeviation="2.5"/>
            <feColorMatrix in="shadowBlurOuter1" values="0 0 0 0 0 0 0 0 0 0 0 0 0 0 0 0 0 0 0.15 0"/>
        </filter>
    </defs>
    <g fill="none" fill-rule="evenodd">
        <g transform="translate(5 3)">
            <use fill="#000" filter="url(#a)" xlink:href="#b"/>
            <use fill="#FFF" xlink:href="#b"/>
        </g>
        <g fill-rule="nonzero">
            <path fill="#353535" d="M50.08 54.935H37.264V53.07h.13c.506 0 .98-.036 1.42-.108.441-.073.825-.221 1.15-.445.324-.223.585-.545.78-.965.195-.419.293-.975.293-1.67V36.026c0-.651-.098-1.175-.293-1.573a2.257 2.257 0 0 0-.791-.921 2.978 2.978 0 0 0-1.16-.434 8.648 8.648 0 0 0-1.4-.108h-.13v-1.866h6.832l.846 4.403h.217c.289-.665.585-1.29.889-1.876a6.19 6.19 0 0 1 1.117-1.54c.44-.44.986-.788 1.637-1.04.65-.254 1.467-.38 2.45-.38 1.62 0 2.823.282 3.611.846.788.564 1.183 1.36 1.183 2.385a3.5 3.5 0 0 1-.228 1.28c-.152.39-.394.726-.727 1.009-.332.282-.759.498-1.279.65-.52.152-1.157.228-1.908.228 0-1.229-.174-2.115-.52-2.657-.348-.542-.955-.813-1.822-.813-.55 0-1.041.156-1.475.467-.434.31-.813.723-1.138 1.236a8.149 8.149 0 0 0-.825 1.767 16.077 16.077 0 0 0-.542 2.05 19.248 19.248 0 0 0-.293 2.093 22.843 22.843 0 0 0-.087 1.886V50.1c0 .65.098 1.175.293 1.572.195.398.46.698.792.9.332.203.719.336 1.16.401.44.065.907.098 1.399.098h1.236v1.864zM80.116 50.099c0 .65.098 1.175.293 1.572.195.398.46.698.791.9.333.203.72.337 1.16.402.441.064.908.097 1.4.097h.13v1.865H76.84l-.585-3.6h-.217c-.448.839-.943 1.518-1.485 2.039a6.805 6.805 0 0 1-1.724 1.225 6.823 6.823 0 0 1-1.908.607c-.665.109-1.36.163-2.082.163-1.17 0-2.212-.166-3.123-.5a5.526 5.526 0 0 1-2.299-1.56c-.621-.709-1.095-1.613-1.42-2.712-.325-1.098-.488-2.407-.488-3.925V36.025c0-.651-.098-1.175-.293-1.573a2.257 2.257 0 0 0-.791-.921 2.978 2.978 0 0 0-1.16-.434 8.648 8.648 0 0 0-1.4-.108h-.13v-1.866h7.96v15.333c0 .969.075 1.829.227 2.58.152.752.405 1.388.759 1.909.354.52.831.914 1.431 1.182.6.267 1.348.401 2.245.401.983 0 1.825-.173 2.526-.52a4.666 4.666 0 0 0 1.735-1.464c.455-.629.792-1.384 1.009-2.266.217-.882.325-1.858.325-2.928V36.2c0-.694-.098-1.255-.293-1.68-.195-.427-.455-.752-.78-.977a2.792 2.792 0 0 0-1.15-.444 8.789 8.789 0 0 0-1.42-.109h-.13v-1.865h7.937V50.1zM96.815 32.902c-.853 0-1.544.12-2.071.357-.528.239-.94.575-1.237 1.01-.296.433-.495.946-.596 1.539a11.483 11.483 0 0 0-.152 1.93c-1.229 0-2.165-.21-2.808-.629-.643-.42-.965-1.142-.965-2.169 0-.766.21-1.416.629-1.951.42-.535.994-.973 1.724-1.312.73-.34 1.58-.59 2.548-.749a19.13 19.13 0 0 1 3.101-.238c1.36 0 2.545.133 3.557.4 1.012.268 1.858.706 2.537 1.313.68.607 1.19 1.4 1.529 2.375.34.976.51 2.172.51 3.589v11.515c0 .622.05 1.135.151 1.54.102.404.26.73.478.975.216.246.502.42.856.521.355.101.777.152 1.269.152h.13v1.865h-6.007l-.694-3.817h-.369c-.462.622-.91 1.193-1.344 1.713-.433.52-.91.969-1.431 1.344-.52.376-1.11.669-1.768.879-.657.21-1.45.314-2.374.314a8.631 8.631 0 0 1-2.744-.422 5.773 5.773 0 0 1-2.19-1.302c-.614-.585-1.095-1.322-1.442-2.211-.347-.89-.52-1.942-.52-3.156 0-2.356.838-4.105 2.515-5.248 1.677-1.142 4.214-1.763 7.612-1.865l3.686-.13v-2.667c0-.796-.043-1.53-.13-2.202-.087-.672-.275-1.25-.564-1.735a2.911 2.911 0 0 0-1.247-1.127c-.542-.268-1.269-.401-2.18-.401zm-5.379 15.592c0 1.388.293 2.425.879 3.112.585.687 1.492 1.03 2.721 1.03.897 0 1.71-.144 2.44-.433a5.2 5.2 0 0 0 1.865-1.236 5.417 5.417 0 0 0 1.182-1.952c.274-.767.412-1.62.412-2.56v-3.6l-2.841.131c-1.258.058-2.31.213-3.156.466-.846.254-1.528.607-2.049 1.063a3.81 3.81 0 0 0-1.117 1.68c-.224.666-.336 1.432-.336 2.3zM123.098 53.07v1.865h-11.95V53.07h.37c.505 0 .979-.036 1.42-.109.44-.072.824-.22 1.15-.444.324-.224.585-.546.78-.965.195-.42.293-.976.293-1.67V36.025c0-.651-.098-1.175-.293-1.573a2.257 2.257 0 0 0-.792-.921 2.978 2.978 0 0 0-1.16-.434 8.648 8.648 0 0 0-1.399-.108h-.13v-1.866h7.179l.585 3.6h.217c.462-.824.95-1.5 1.464-2.027a6.387 6.387 0 0 1 1.626-1.237 6.14 6.14 0 0 1 1.822-.607c.643-.108 1.319-.162 2.027-.162 1.171 0 2.216.17 3.134.51.918.34 1.699.86 2.342 1.561s1.135 1.601 1.475 2.7c.34 1.099.51 2.407.51 3.925v10.497c0 .694.082 1.25.249 1.67.166.419.4.74.704.964.304.224.665.372 1.085.445.419.072.874.108 1.366.108h.152v1.865h-7.742V39.603c0-.97-.087-1.83-.26-2.58-.174-.752-.452-1.389-.835-1.91a3.599 3.599 0 0 0-1.507-1.182c-.622-.267-1.381-.4-2.278-.4-1.012 0-1.861.194-2.548.585-.686.39-1.24.918-1.659 1.583-.419.665-.719 1.431-.9 2.299-.18.867-.271 1.778-.271 2.732V50.1c0 .65.098 1.175.293 1.572.195.398.46.698.791.9.333.203.72.337 1.16.402.441.064.908.097 1.4.097h.13zM161.917 32.056c0 .318-.048.618-.142.9a2.069 2.069 0 0 1-.422.737c-.188.21-.43.376-.727.5a2.736 2.736 0 0 1-1.052.184c0-.174-.021-.347-.065-.52a1.435 1.435 0 0 0-.227-.489 1.184 1.184 0 0 0-.444-.369c-.188-.093-.434-.14-.738-.14a3.7 3.7 0 0 0-1.02.13c-.303.086-.6.224-.888.412a8.018 8.018 0 0 1 1.247 2.2c.325.847.488 1.905.488 3.177 0 1.1-.166 2.115-.5 3.047a6.633 6.633 0 0 1-1.485 2.418c-.657.68-1.489 1.211-2.494 1.594-1.004.383-2.18.575-3.524.575-.173 0-.368-.003-.585-.01l-.65-.022a7.567 7.567 0 0 1-.608-.044c-.188-.021-.34-.04-.455-.054a7.683 7.683 0 0 0-.825.477c-.26.174-.488.37-.683.586a2.61 2.61 0 0 0-.466.737 2.328 2.328 0 0 0-.174.911c0 .361.069.65.206.868.137.216.329.386.575.51.245.122.538.202.878.238.34.036.705.054 1.095.054h5.032c1.33 0 2.457.166 3.383.499.925.332 1.68.791 2.266 1.377a5.228 5.228 0 0 1 1.28 2.104c.267.817.4 1.702.4 2.656 0 1.273-.235 2.422-.704 3.449-.47 1.026-1.19 1.897-2.158 2.613-.97.715-2.194 1.268-3.676 1.659-1.482.39-3.227.585-5.237.585-3.094 0-5.407-.571-6.94-1.713-1.532-1.142-2.299-2.733-2.299-4.77 0-.868.152-1.627.456-2.278a5.155 5.155 0 0 1 1.225-1.67 6.47 6.47 0 0 1 1.768-1.128 9.307 9.307 0 0 1 2.104-.628c-.304-.13-.6-.304-.89-.52a3.993 3.993 0 0 1-1.344-1.822 3.724 3.724 0 0 1-.217-1.302c0-.881.232-1.644.694-2.288.463-.643 1.2-1.268 2.212-1.875a5.697 5.697 0 0 1-1.702-1.074 6.554 6.554 0 0 1-1.258-1.561 7.63 7.63 0 0 1-.78-1.92 8.498 8.498 0 0 1-.271-2.147c0-1.287.173-2.436.52-3.448.347-1.012.868-1.872 1.562-2.58.694-.709 1.561-1.251 2.602-1.627 1.041-.376 2.263-.564 3.665-.564a10.458 10.458 0 0 1 3.025.445c.441.137.839.292 1.193.466.355.173.64.354.857.542.217-.231.47-.488.759-.77.289-.282.614-.542.976-.78a5.831 5.831 0 0 1 1.182-.597c.426-.16.885-.238 1.377-.238.448 0 .835.061 1.16.184.325.123.596.29.813.499.217.21.38.456.488.737.109.282.162.574.162.878zM143.18 58.84c0 .65.087 1.257.26 1.821.173.564.477 1.048.91 1.453.434.405 1.02.723 1.757.954.738.232 1.67.347 2.798.347 1.59 0 2.902-.133 3.936-.4 1.034-.268 1.854-.64 2.461-1.118.608-.476 1.034-1.044 1.28-1.702a6.12 6.12 0 0 0 .369-2.158c0-.679-.098-1.24-.293-1.68a2.36 2.36 0 0 0-.868-1.041c-.383-.253-.857-.43-1.42-.532a11.145 11.145 0 0 0-1.952-.152h-4.36c-.621 0-1.225.055-1.81.163a4.15 4.15 0 0 0-1.562.618c-.455.304-.82.73-1.095 1.28-.274.549-.411 1.265-.411 2.147zm2.58-20.06c0 1.894.315 3.282.944 4.164.628.882 1.658 1.322 3.09 1.322.723 0 1.333-.108 1.832-.325.5-.217.908-.55 1.226-.997.318-.449.545-1.023.683-1.724.137-.702.206-1.536.206-2.505 0-1.995-.304-3.47-.911-4.424-.607-.954-1.634-1.431-3.08-1.431-1.43 0-2.454.488-3.068 1.464-.615.975-.922 2.46-.922 4.456z"/>
            <path fill="#40C4E5" d="M185.858 50.099c0 .65.098 1.175.293 1.572.195.398.46.698.792.9.332.203.719.337 1.16.402.44.064.907.097 1.399.097h.13v1.865h-7.048l-.586-3.6h-.217c-.448.839-.943 1.518-1.485 2.039a6.805 6.805 0 0 1-1.724 1.225 6.828 6.828 0 0 1-1.908.607c-.665.108-1.36.163-2.082.163-1.17 0-2.212-.166-3.122-.5a5.526 5.526 0 0 1-2.3-1.56c-.621-.709-1.094-1.613-1.42-2.712-.325-1.098-.488-2.407-.488-3.925V36.025c0-.651-.098-1.175-.293-1.573a2.257 2.257 0 0 0-.791-.921 2.98 2.98 0 0 0-1.16-.434 8.648 8.648 0 0 0-1.4-.108h-.13v-1.866h7.96v15.333c0 .969.075 1.829.227 2.58.152.752.405 1.388.759 1.909.354.52.831.914 1.431 1.182.6.267 1.349.401 2.245.401.983 0 1.825-.173 2.526-.52a4.666 4.666 0 0 0 1.735-1.464c.456-.629.792-1.384 1.009-2.266.217-.882.325-1.858.325-2.928V36.2c0-.694-.097-1.255-.293-1.68-.195-.427-.455-.752-.78-.977a2.792 2.792 0 0 0-1.15-.444 8.789 8.789 0 0 0-1.42-.109h-.13v-1.865h7.937V50.1zM199.63 31.123v24.16c0 1.994-.218 3.653-.652 4.976-.433 1.323-1.04 2.378-1.821 3.166a6.6 6.6 0 0 1-2.787 1.68c-1.077.333-2.259.5-3.546.5h-.715V63.5h.325c.795 0 1.504-.134 2.125-.401.622-.268 1.146-.716 1.573-1.345.426-.628.751-1.467.975-2.515.225-1.048.337-2.353.337-3.915v-19.3c0-.651-.098-1.175-.293-1.573a2.257 2.257 0 0 0-.792-.921 2.978 2.978 0 0 0-1.16-.434 8.648 8.648 0 0 0-1.399-.108h-.13v-1.866h7.96zm-4.794-7.2c0-.52.065-.954.195-1.3.13-.348.308-.63.532-.847.224-.217.491-.368.802-.455.31-.087.64-.13.986-.13.347 0 .676.043.987.13.31.087.578.238.802.455.224.217.405.5.542.846.138.347.206.78.206 1.301 0 .52-.068.954-.206 1.301a2.37 2.37 0 0 1-.542.846 1.95 1.95 0 0 1-.802.467c-.31.094-.64.14-.987.14-.346 0-.675-.046-.986-.14a1.937 1.937 0 0 1-.802-.467 2.26 2.26 0 0 1-.532-.846c-.13-.347-.195-.78-.195-1.3zM205.571 53.07c.492 0 .958-.033 1.4-.098.44-.065.827-.199 1.16-.401.332-.203.595-.502.79-.9.196-.398.294-.922.294-1.572V36.025c0-.651-.098-1.175-.293-1.573a2.257 2.257 0 0 0-.792-.921 2.978 2.978 0 0 0-1.16-.434 8.648 8.648 0 0 0-1.399-.108h-.13v-1.866h7.937v18.76c0 .693.098 1.25.293 1.669.195.42.456.74.78.965.326.224.713.372 1.16.444.45.073.92.109 1.41.109h.586v1.865h-12.621V53.07h.585zm3.014-29.147c0-.52.065-.954.196-1.3.13-.348.31-.63.542-.847.231-.217.499-.368.802-.455a3.61 3.61 0 0 1 .997-.13c.347 0 .673.043.976.13.304.086.567.238.791.455.225.217.405.5.543.846.137.347.206.78.206 1.301 0 .52-.07.954-.206 1.301a2.37 2.37 0 0 1-.543.846 1.958 1.958 0 0 1-.791.467 3.286 3.286 0 0 1-.976.14c-.361 0-.694-.046-.997-.14a2.032 2.032 0 0 1-.802-.467 2.198 2.198 0 0 1-.542-.846c-.13-.347-.196-.78-.196-1.3z"/>
        </g>
    </g>
</svg>
